<svg width="848" height="461" viewBox="0 0 848 461" fill="none" xmlns="http://www.w3.org/2000/svg">
<rect x="0.5" y="0.5" width="847" height="460" rx="24.5" fill="white" stroke="black"/>
<mask id="path-2-inside-1_102_12" fill="white">
<path d="M270 0H377V87C377 100.807 365.807 112 352 112H270V0Z"/>
</mask>
<path d="M270 0H377V87C377 100.807 365.807 112 352 112H270V0Z" fill="white"/>
<path d="M270 -1H378L376 1H270V-1ZM378 87C378 101.359 366.359 113 352 113H270V111H352C365.255 111 376 100.255 376 87H378ZM270 112V0V112ZM378 -1V87C378 101.359 366.359 113 352 113V111C365.255 111 376 100.255 376 87V1L378 -1Z" fill="black" mask="url(#path-2-inside-1_102_12)"/>
<mask id="path-4-inside-2_102_12" fill="white">
<path d="M161 136C161 122.193 172.193 111 186 111H270V173H161V136Z"/>
</mask>
<path d="M161 136C161 122.193 172.193 111 186 111H270V173H161V136Z" fill="white"/>
<path d="M160 136C160 121.641 171.641 110 186 110H270V112H186C172.745 112 162 122.745 162 136H160ZM270 173H161H270ZM160 173V136C160 121.641 171.641 110 186 110V112C172.745 112 162 122.745 162 136V173H160ZM270 111V173V111Z" fill="black" mask="url(#path-4-inside-2_102_12)"/>
<mask id="path-6-inside-3_102_12" fill="white">
<path d="M71 173H162V206C162 219.807 150.807 231 137 231H71V173Z"/>
</mask>
<path d="M71 173H162V206C162 219.807 150.807 231 137 231H71V173Z" fill="white"/>
<path d="M71 173H162H71ZM163 206C163 220.359 151.359 232 137 232H71V230H137C150.255 230 161 219.255 161 206H163ZM71 231V173V231ZM163 173V206C163 220.359 151.359 232 137 232V230C150.255 230 161 219.255 161 206V173H163Z" fill="black" mask="url(#path-6-inside-3_102_12)"/>
<mask id="path-8-inside-4_102_12" fill="white">
<path d="M0 255C0 241.193 11.1929 230 25 230H71V298H0V255Z"/>
</mask>
<path d="M0 255C0 241.193 11.1929 230 25 230H71V298H0V255Z" fill="#FFFEFE"/>
<path d="M-1 255C-1 240.641 10.6406 229 25 229H71V231H25C11.7452 231 1 241.745 1 255H-1ZM71 298H0H71ZM-1 298V255C-1 240.641 10.6406 229 25 229V231C11.7452 231 1 241.745 1 255V298H-1ZM71 230V298V230Z" fill="black" mask="url(#path-8-inside-4_102_12)"/>
</svg>
